<svg xmlns="http://www.w3.org/2000/svg" xmlns:svg="http://www.w3.org/2000/svg" id="svg180" width="195.512" height="72.757" version="1.1" viewBox="0 0 195.512 72.757" xml:space="preserve" style="clip-rule:evenodd;fill-rule:evenodd;stroke-linejoin:round;stroke-miterlimit:2"><g id="g1145" transform="scale(0.05718531)"><g id="Layer-1" transform="matrix(5.5188591,0,0,5.5188591,-616.73802,-881.67637)"><g id="g4" transform="matrix(0,1,1,0,655.582,314.316)"><path d="M 15.75,-15.75 C 7.087,-15.75 0.063,-8.697 0.063,0 c 0,8.7 7.024,15.75 15.687,15.75 8.664,0 15.688,-7.05 15.688,-15.75 0,-8.697 -7.024,-15.75 -15.688,-15.75" style="fill:#005aaa;fill-rule:nonzero" id="path2"/></g><g id="g8" transform="matrix(0,1,1,0,619.582,307.482)"><path d="M 15.75,-15.75 C 7.087,-15.75 0.063,-8.697 0.063,0 c 0,8.7 7.024,15.75 15.687,15.75 8.664,0 15.688,-7.05 15.688,-15.75 0,-8.697 -7.024,-15.75 -15.688,-15.75" style="fill:#005aaa;fill-rule:nonzero" id="path6"/></g><g id="g12" transform="matrix(0,1,1,0,588.748,286.482)"><path d="M 15.75,-15.75 C 7.087,-15.75 0.063,-8.697 0.063,0 c 0,8.7 7.024,15.75 15.687,15.75 8.664,0 15.688,-7.05 15.688,-15.75 0,-8.697 -7.024,-15.75 -15.688,-15.75" style="fill:#005aaa;fill-rule:nonzero" id="path10"/></g><g id="g16" transform="matrix(0,1,1,0,567.582,255.482)"><path d="M 15.75,-15.75 C 7.086,-15.75 0.062,-8.697 0.062,0 c 0,8.7 7.024,15.75 15.688,15.75 8.664,0 15.688,-7.05 15.688,-15.75 0,-8.697 -7.024,-15.75 -15.688,-15.75" style="fill:#005aaa;fill-rule:nonzero" id="path14"/></g><g id="g20" transform="matrix(0,1,1,0,560.582,219.483)"><path d="M 15.75,-15.75 C 7.086,-15.75 0.063,-8.697 0.063,0 c 0,8.7 7.023,15.75 15.687,15.75 8.664,0 15.688,-7.05 15.688,-15.75 0,-8.697 -7.024,-15.75 -15.688,-15.75" style="fill:#005aaa;fill-rule:nonzero" id="path18"/></g><g id="g24" transform="matrix(0,1,1,0,655.59,159.552)"><path d="m 75.659,-75.662 c -41.673,0 -75.454,33.873 -75.454,75.66 0,41.787 33.781,75.661 75.454,75.661 41.674,0 75.457,-33.874 75.457,-75.661 0,-41.787 -33.783,-75.66 -75.457,-75.66" style="fill:#005aaa;fill-rule:nonzero" id="path22"/></g><g id="g28" transform="matrix(0,1,1,0,438.583,314.316)"><path d="M 15.75,-15.75 C 7.087,-15.749 0.063,-8.698 0.063,0 c 0,8.698 7.024,15.75 15.687,15.75 8.664,0 15.688,-7.052 15.688,-15.75 0,-8.698 -7.024,-15.75 -15.688,-15.75" style="fill:#005aaa;fill-rule:nonzero" id="path26"/></g><g id="g32" transform="matrix(0,1,1,0,402.667,307.4)"><path d="M 15.75,-15.75 C 7.087,-15.75 0.063,-8.698 0.063,0 c 0,8.698 7.024,15.75 15.687,15.75 8.664,0 15.688,-7.053 15.688,-15.75 0,-8.698 -7.024,-15.75 -15.688,-15.75" style="fill:#005aaa;fill-rule:nonzero" id="path30"/></g><g id="g36" transform="matrix(0,1,1,0,371.5,286.399)"><path d="M 15.75,-15.75 C 7.086,-15.75 0.062,-8.698 0.063,0 c 0,8.697 7.024,15.75 15.687,15.75 8.664,0 15.688,-7.053 15.688,-15.75 0,-8.698 -7.024,-15.75 -15.688,-15.75" style="fill:#005aaa;fill-rule:nonzero" id="path34"/></g><g id="g40" transform="matrix(0,1,1,0,350.666,255.399)"><path d="M 15.75,-15.75 C 7.086,-15.75 0.062,-8.698 0.062,0 c 0,8.697 7.024,15.75 15.688,15.75 8.664,0 15.688,-7.053 15.688,-15.75 0,-8.698 -7.024,-15.75 -15.688,-15.75" style="fill:#005aaa;fill-rule:nonzero" id="path38"/></g><g id="g44" transform="matrix(0,1,1,0,343.5,219.399)"><path d="m 15.751,-15.749 c -8.664,0 -15.688,7.051 -15.688,15.75 0,8.697 7.024,15.75 15.688,15.75 8.664,0 15.687,-7.053 15.687,-15.75 0,-8.699 -7.023,-15.75 -15.687,-15.75" style="fill:#005aaa;fill-rule:nonzero" id="path42"/></g><g id="g48" transform="matrix(0,1,1,0,439.001,159.51)"><path d="m 75.66,-75.663 c -41.604,0 -75.329,33.873 -75.329,75.66 0,41.789 33.725,75.663 75.329,75.663 41.604,0 75.332,-33.874 75.332,-75.663 0,-41.787 -33.728,-75.66 -75.332,-75.66" style="fill:#005aaa;fill-rule:nonzero" id="path46"/></g><g id="g52" transform="matrix(0,1,1,0,222.5,314.233)"><path d="M 15.75,-15.75 C 7.086,-15.75 0.062,-8.699 0.062,0 c 0,8.697 7.024,15.75 15.688,15.75 8.662,0 15.688,-7.053 15.688,-15.75 0,-8.699 -7.026,-15.75 -15.688,-15.75" style="fill:#005aaa;fill-rule:nonzero" id="path50"/></g><g id="g56" transform="matrix(0,1,1,0,186.5,307.483)"><path d="M 15.75,-15.75 C 7.086,-15.75 0.062,-8.699 0.062,0 c 0,8.697 7.024,15.75 15.688,15.75 8.662,0 15.688,-7.053 15.688,-15.75 0,-8.699 -7.026,-15.75 -15.688,-15.75" style="fill:#005aaa;fill-rule:nonzero" id="path54"/></g><g id="g60" transform="matrix(0,1,1,0,155.5,286.358)"><path d="M 15.75,-15.75 C 7.086,-15.75 0.062,-8.699 0.062,0 c 0,8.697 7.024,15.75 15.688,15.75 8.662,0 15.688,-7.053 15.688,-15.75 0,-8.699 -7.026,-15.75 -15.688,-15.75" style="fill:#005aaa;fill-rule:nonzero" id="path58"/></g><g id="g64" transform="matrix(0,1,1,0,134.626,255.358)"><path d="M 15.75,-15.75 C 7.086,-15.75 0.063,-8.699 0.063,0 c 0,8.697 7.023,15.75 15.687,15.75 8.664,0 15.688,-7.053 15.688,-15.75 0,-8.699 -7.024,-15.75 -15.688,-15.75" style="fill:#005aaa;fill-rule:nonzero" id="path62"/></g><g id="g68" transform="matrix(0,1,1,0,127.501,219.483)"><path d="M 15.75,-15.75 C 7.086,-15.75 0.063,-8.699 0.063,0 c 0,8.697 7.023,15.75 15.687,15.75 8.664,0 15.688,-7.053 15.688,-15.75 0,-8.699 -7.024,-15.75 -15.688,-15.75" style="fill:#005aaa;fill-rule:nonzero" id="path66"/></g><g id="g72" transform="matrix(0,1,1,0,222.667,159.51)"><path d="m 75.659,-75.662 c -41.604,0 -75.329,33.874 -75.329,75.661 0,41.787 33.725,75.66 75.329,75.66 41.604,0 75.332,-33.873 75.332,-75.66 0,-41.787 -33.728,-75.661 -75.332,-75.661" style="fill:#005aaa;fill-rule:nonzero" id="path70"/></g><g id="g76" transform="translate(139.525,380.076)"><path d="M 0,2.374 H -9.62 V 6.972 H 0 c 0.801,0 1.341,-0.119 1.621,-0.36 C 1.9,6.374 2.041,5.952 2.041,5.349 V 3.981 C 2.041,3.377 1.9,2.959 1.621,2.725 1.341,2.491 0.801,2.374 0,2.374 m 0,-7.279 h -9.62 v 4.306 H 0 c 0.731,0 1.237,-0.096 1.518,-0.291 0.28,-0.193 0.42,-0.529 0.42,-1.007 v -1.709 c 0,-0.468 -0.14,-0.801 -0.42,-1 C 1.237,-4.806 0.731,-4.905 0,-4.905 M -13.771,10.219 V -7.845 H 1.767 c 1.428,0 2.463,0.28 3.103,0.837 0.641,0.559 0.961,1.447 0.961,2.666 v 2.204 c 0,0.866 -0.268,1.559 -0.807,2.077 C 4.487,0.458 3.716,0.779 2.71,0.905 3.75,1.042 4.554,1.412 5.119,2.016 5.686,2.62 5.968,3.406 5.968,4.374 v 2.307 c 0,1.197 -0.441,2.086 -1.321,2.666 -0.879,0.582 -2.217,0.872 -4.012,0.872 z" style="fill:#f68b22;fill-rule:nonzero" id="path74"/></g><g id="g80" transform="translate(155.92,390.295)"><path d="M 0,-14.8 V -2.769 H 10.341 V -14.8 h 3.652 v 11.297 c 0,1.344 -0.271,2.264 -0.814,2.76 C 12.636,-0.248 11.604,0 10.083,0 H 0.257 C -1.252,0 -2.272,-0.245 -2.804,-0.736 -3.336,-1.225 -3.602,-2.148 -3.602,-3.503 V -14.8 Z" style="fill:#f68b22;fill-rule:nonzero" id="path78"/></g><g id="g84" transform="translate(180.169,378.264)"><path d="m 0,9.262 h 4.664 c 2.549,0 4.333,-0.37 5.351,-1.111 1.017,-0.741 1.526,-1.988 1.526,-3.743 0,-1.526 -0.424,-2.663 -1.27,-3.409 C 9.426,0.253 8.128,-0.121 6.379,-0.121 H 0 Z m -3.653,2.769 v -14.8 h 9.998 c 2.869,0 5.073,0.635 6.61,1.905 1.538,1.271 2.307,3.085 2.307,5.443 0,2.485 -0.815,4.347 -2.444,5.589 -1.629,1.241 -4.089,1.863 -7.382,1.863 z" style="fill:#f68b22;fill-rule:nonzero" id="path82"/></g><g id="g88" transform="translate(205.651,381.441)"><path d="M 0,2.906 H 6.808 L 3.344,-3.263 Z m -7.031,5.947 8.814,-14.8 h 3.482 l 8.951,14.8 H 10.152 L 8.283,5.606 h -9.826 l -1.87,3.247 z" style="fill:#f68b22;fill-rule:nonzero" id="path86"/></g><g id="g92" transform="translate(230.517,375.495)"><path d="M 0,14.8 -8.986,0 h 4.098 L 1.406,10.733 7.34,0 h 3.756 l -8.61,14.8 z" style="fill:#f68b22;fill-rule:nonzero" id="path90"/></g><g id="g96" transform="translate(251.284,384.382)"><path d="m 0,-10.819 3.498,-5.912 h 3.807 l -5.059,5.912 z M -0.755,-0.035 H 6.053 L 2.589,-6.204 Z M -7.786,5.912 1.028,-8.887 H 4.51 L 13.461,5.912 H 9.397 L 7.528,2.665 h -9.826 l -1.87,3.247 z" style="fill:#f68b22;fill-rule:nonzero" id="path94"/></g><g id="g100" transform="translate(280.282,387.748)"><path d="m 0,-9.706 h -8.266 v 4.102 H 0 c 0.629,0 1.061,-0.092 1.295,-0.274 0.233,-0.182 0.351,-0.49 0.351,-0.924 v -1.709 c 0,-0.432 -0.118,-0.74 -0.351,-0.922 C 1.061,-9.615 0.629,-9.706 0,-9.706 M -11.833,2.547 v -14.8 H 1.543 c 1.224,0 2.109,0.226 2.658,0.675 0.549,0.45 0.823,1.183 0.823,2.196 v 3.487 c 0,1.002 -0.274,1.726 -0.823,2.169 -0.549,0.446 -1.434,0.667 -2.658,0.667 h -2.04 L 6.567,2.547 H 1.372 l -6.226,-5.606 h -3.412 v 5.606 z" style="fill:#f68b22;fill-rule:nonzero" id="path98"/></g><g id="g104" transform="translate(0,167.245)"><rect id="rect102" width="4.219" height="18.063" x="292.595" y="204.986" style="fill:#f68b22"/></g><g id="g108" transform="translate(354.346,387.133)"><path d="m 0,-11.741 h -11.867 v 3.88 h 11.301 c 1.772,0 2.969,0.302 3.592,0.905 0.623,0.605 0.935,1.726 0.935,3.366 v 2.479 C 3.961,0.53 3.649,1.652 3.026,2.256 2.403,2.86 1.206,3.161 -0.566,3.161 h -11.199 c -1.772,0 -2.969,-0.301 -3.592,-0.905 -0.623,-0.604 -0.935,-1.726 -0.935,-3.367 v -0.496 l 3.722,-0.769 V -0.24 H 0.239 v -4.118 h -11.301 c -1.76,0 -2.949,-0.302 -3.566,-0.905 -0.618,-0.605 -0.927,-1.727 -0.927,-3.368 v -2 c 0,-1.64 0.309,-2.761 0.927,-3.366 0.617,-0.603 1.806,-0.905 3.566,-0.905 h 10.29 c 1.704,0 2.878,0.29 3.524,0.871 0.645,0.581 0.969,1.612 0.969,3.094 v 0.375 L 0,-9.69 Z" style="fill:#f68b22;fill-rule:nonzero" id="path106"/></g><g id="g112" transform="translate(378.748,387.578)"><path d="M 0,-9.366 H -9.757 V -0.12 H 0 v -3.144 l 3.653,0.734 v 1.744 c 0,1.344 -0.268,2.264 -0.805,2.76 C 2.31,2.469 1.28,2.717 -0.239,2.717 h -9.279 c -1.497,0 -2.514,-0.245 -3.051,-0.735 -0.538,-0.49 -0.807,-1.412 -0.807,-2.768 v -7.81 c 0,-1.344 0.267,-2.262 0.798,-2.752 0.531,-0.49 1.552,-0.735 3.06,-0.735 h 9.279 c 1.531,0 2.563,0.245 3.094,0.735 0.533,0.49 0.798,1.408 0.798,2.752 v 1.435 L 0,-6.632 Z" style="fill:#f68b22;fill-rule:nonzero" id="path110"/></g><g id="g116" transform="translate(388.352,375.495)"><path d="M 0,14.8 V 0 H 3.653 V 5.623 H 14.954 V 0 h 3.618 V 14.8 H 14.954 V 8.563 H 3.653 V 14.8 Z" style="fill:#f68b22;fill-rule:nonzero" id="path114"/></g><g id="g120" transform="translate(0,163.861)"><path d="m 423.987,204.985 h 3.498 v 3.914 h -3.498 z m -5.831,0 h 3.499 v 3.914 h -3.499 z m -1.337,18.612 h 11.97 v -9.246 h -11.97 z M 413.2,215.12 c 0,-1.344 0.264,-2.262 0.789,-2.752 0.526,-0.489 1.549,-0.734 3.07,-0.734 h 11.49 c 1.532,0 2.557,0.245 3.078,0.734 0.52,0.49 0.78,1.408 0.78,2.752 v 7.811 c 0,1.355 -0.265,2.278 -0.798,2.767 -0.531,0.491 -1.551,0.736 -3.06,0.736 h -11.49 c -1.521,0 -2.544,-0.245 -3.07,-0.736 -0.525,-0.489 -0.789,-1.412 -0.789,-2.767 z" style="fill:#f68b22;fill-rule:nonzero" id="path118"/></g><g id="g124" transform="translate(438.666,375.495)"><path d="M 0,14.8 V 0 H 2.486 L 15.091,9.826 V 0 h 3.275 V 14.8 H 15.863 L 3.293,4.82 v 9.98 z" style="fill:#f68b22;fill-rule:nonzero" id="path122"/></g><g id="g128" transform="translate(463.669,375.495)"><path d="M 0,14.8 V 0 H 3.653 V 5.623 H 14.954 V 0 h 3.618 V 14.8 H 14.954 V 8.563 H 3.653 V 14.8 Z" style="fill:#f68b22;fill-rule:nonzero" id="path126"/></g><g id="g132" transform="translate(488.878,375.495)"><path d="M 0,14.8 V 0 H 15.932 V 2.615 H 3.653 v 3.23 h 7.151 V 8.391 H 3.653 v 3.64 H 16.12 V 14.8 Z" style="fill:#f68b22;fill-rule:nonzero" id="path130"/></g><g id="g136" transform="translate(522.061,387.748)"><path d="m 0,-9.706 h -8.266 v 4.102 H 0 c 0.629,0 1.061,-0.092 1.295,-0.274 0.233,-0.182 0.351,-0.49 0.351,-0.924 v -1.709 c 0,-0.432 -0.118,-0.74 -0.351,-0.922 C 1.061,-9.615 0.629,-9.706 0,-9.706 M -11.833,2.547 v -14.8 H 1.543 c 1.224,0 2.109,0.226 2.658,0.675 0.549,0.45 0.823,1.183 0.823,2.196 v 3.487 c 0,1.002 -0.274,1.726 -0.823,2.169 -0.549,0.446 -1.434,0.667 -2.658,0.667 h -2.04 L 6.567,2.547 H 1.372 l -6.226,-5.606 h -3.412 v 5.606 z" style="fill:#f68b22;fill-rule:nonzero" id="path134"/></g><g id="g140" transform="translate(531.888,372.232)"><path d="M 0,18.063 V 16.097 L 12.673,3.229 H 1.27 V 0 H 19.464 V 1.793 L 6.603,14.662 h 12.861 v 3.401 z" style="fill:#f68b22;fill-rule:nonzero" id="path138"/></g><g id="g144" transform="translate(606.605,387.133)"><path d="m 0,-11.741 h -11.867 v 3.88 h 11.301 c 1.772,0 2.969,0.302 3.592,0.905 0.623,0.605 0.935,1.726 0.935,3.366 v 2.479 C 3.961,0.53 3.649,1.652 3.026,2.256 2.403,2.86 1.206,3.161 -0.566,3.161 h -11.199 c -1.772,0 -2.969,-0.301 -3.592,-0.905 -0.623,-0.604 -0.935,-1.726 -0.935,-3.367 v -0.496 l 3.722,-0.769 V -0.24 H 0.239 v -4.118 h -11.301 c -1.76,0 -2.949,-0.302 -3.566,-0.905 -0.618,-0.605 -0.927,-1.727 -0.927,-3.368 v -2 c 0,-1.64 0.309,-2.761 0.927,-3.366 0.617,-0.603 1.806,-0.905 3.566,-0.905 h 10.29 c 1.704,0 2.878,0.29 3.524,0.871 0.645,0.581 0.969,1.612 0.969,3.094 v 0.375 L 0,-9.69 Z" style="fill:#f68b22;fill-rule:nonzero" id="path142"/></g><g id="g148" transform="translate(626.84,387.646)"><path d="M 0,-9.503 V 2.648 H -3.618 V -9.503 h -7.168 v -2.648 H 7.186 v 2.648 z" style="fill:#f68b22;fill-rule:nonzero" id="path146"/></g><g id="g152" transform="translate(645.001,384.382)"><path d="m 0,-10.819 3.498,-5.912 h 3.808 l -5.06,5.912 z m -2.692,1.932 V 3.144 H 7.648 V -8.887 h 3.653 V 2.41 c 0,1.343 -0.272,2.263 -0.815,2.759 C 9.943,5.664 8.911,5.912 7.391,5.912 h -9.827 c -1.508,0 -2.529,-0.245 -3.06,-0.735 C -6.028,4.688 -6.294,3.765 -6.294,2.41 V -8.887 Z" style="fill:#f68b22;fill-rule:nonzero" id="path150"/></g><g id="g156" transform="translate(666.558,378.264)"><path d="m 0,9.262 h 4.664 c 2.549,0 4.333,-0.37 5.351,-1.111 1.017,-0.741 1.526,-1.988 1.526,-3.743 0,-1.526 -0.424,-2.663 -1.27,-3.409 C 9.426,0.253 8.128,-0.121 6.379,-0.121 H 0 Z m -3.653,2.769 v -14.8 h 9.998 c 2.869,0 5.073,0.635 6.61,1.905 1.538,1.271 2.307,3.085 2.307,5.443 0,2.485 -0.815,4.347 -2.444,5.589 -1.629,1.241 -4.089,1.863 -7.382,1.863 z" style="fill:#f68b22;fill-rule:nonzero" id="path154"/></g><g id="g160" transform="translate(0,170.51)"><rect id="rect158" width="3.602" height="14.8" x="687.272" y="204.985" style="fill:#f68b22"/></g><g id="g164" transform="translate(707.079,384.381)"><path d="m 0,-14.064 3.499,-5.914 h 3.807 l -5.059,5.914 z M -4.424,2.512 H 9.483 V -8.921 H -4.424 Z m -4.219,-10.39 c 0,-1.641 0.309,-2.762 0.926,-3.367 0.617,-0.603 1.807,-0.905 3.568,-0.905 H 9.192 c 1.76,0 2.95,0.302 3.567,0.905 0.617,0.605 0.927,1.726 0.927,3.367 v 9.519 c 0,1.652 -0.31,2.777 -0.927,3.375 -0.617,0.599 -1.807,0.898 -3.567,0.898 H -4.149 C -5.91,5.914 -7.1,5.615 -7.717,5.016 -8.334,4.418 -8.643,3.293 -8.643,1.641 Z" style="fill:#f68b22;fill-rule:nonzero" id="path162"/></g></g><g id="Layer-2" transform="matrix(5.5188591,0,0,5.5188591,-616.73802,-881.67637)"><g id="g169" transform="translate(235.414,232.353)"><path d="M 0,9.502 H -26.619 V 27.891 H 0 c 2.214,0 3.708,-0.479 4.483,-1.436 0.776,-0.957 1.163,-2.642 1.163,-5.058 v -5.469 c 0,-2.415 -0.387,-4.09 -1.163,-5.025 C 3.708,9.97 2.214,9.502 0,9.502 M 0,-19.619 H -26.619 V -2.393 H 0 c 2.023,0 3.424,-0.386 4.199,-1.162 0.775,-0.774 1.162,-2.119 1.162,-4.033 v -6.836 c 0,-1.868 -0.387,-3.201 -1.162,-3.999 C 3.424,-19.22 2.023,-19.619 0,-19.619 M -38.102,40.879 V -31.377 H 4.887 c 3.954,0 6.816,1.117 8.589,3.35 1.771,2.233 2.657,5.788 2.657,10.664 v 8.818 c 0,3.464 -0.744,6.233 -2.231,8.306 -1.487,2.074 -3.622,3.361 -6.405,3.862 2.878,0.547 5.101,2.028 6.666,4.443 1.566,2.416 2.349,5.561 2.349,9.434 v 9.229 c 0,4.785 -1.218,8.339 -3.654,10.664 -2.435,2.324 -6.136,3.486 -11.102,3.486 z" style="fill:#fff;fill-rule:nonzero" id="path167"/></g><g id="g173" transform="translate(455.723,260.586)"><path d="m 0,-46.963 h -32.834 v 15.518 h 31.27 c 4.902,0 8.214,1.208 9.939,3.623 1.725,2.416 2.586,6.904 2.586,13.466 v 9.913 c 0,6.562 -0.861,11.051 -2.586,13.466 -1.725,2.416 -5.037,3.623 -9.939,3.623 h -30.985 c -4.904,0 -8.217,-1.207 -9.941,-3.623 -1.724,-2.415 -2.586,-6.904 -2.586,-13.466 v -1.983 l 10.296,-3.076 v 8.545 H 0.666 v -16.475 h -31.27 c -4.872,0 -8.161,-1.207 -9.869,-3.623 -1.708,-2.415 -2.563,-6.904 -2.563,-13.467 v -7.998 c 0,-6.562 0.855,-11.05 2.563,-13.466 1.708,-2.415 4.997,-3.623 9.869,-3.623 h 28.469 c 4.713,0 7.963,1.162 9.752,3.486 1.785,2.324 2.68,6.449 2.68,12.373 v 1.504 L 0,-38.76 Z" style="fill:#fff;fill-rule:nonzero" id="path171"/></g><g id="g177" transform="translate(672.141,260.586)"><path d="m 0,-46.963 h -32.834 v 15.518 h 31.27 c 4.902,0 8.214,1.208 9.939,3.623 1.725,2.416 2.586,6.904 2.586,13.466 v 9.913 c 0,6.562 -0.861,11.051 -2.586,13.466 -1.725,2.416 -5.037,3.623 -9.939,3.623 h -30.985 c -4.904,0 -8.217,-1.207 -9.941,-3.623 -1.725,-2.415 -2.586,-6.904 -2.586,-13.466 v -1.983 l 10.297,-3.076 v 8.545 H 0.666 v -16.475 h -31.27 c -4.873,0 -8.162,-1.207 -9.869,-3.623 -1.709,-2.415 -2.562,-6.904 -2.562,-13.467 v -7.998 c 0,-6.562 0.853,-11.05 2.562,-13.466 1.707,-2.415 4.996,-3.623 9.869,-3.623 h 28.469 c 4.713,0 7.963,1.162 9.752,3.486 1.785,2.324 2.68,6.449 2.68,12.373 v 1.504 L 0,-38.76 Z" style="fill:#fff;fill-rule:nonzero" id="path175"/></g></g></g></svg>