<?xml version="1.0" encoding="UTF-8" standalone="no"?>
<svg
   width="195.51213"
   height="58.700218"
   viewBox="0 0 195.51213 58.70022"
   version="1.1"
   xml:space="preserve"
   style="clip-rule:evenodd;fill-rule:evenodd;stroke-linejoin:round;stroke-miterlimit:2"
   id="svg180"
   sodipodi:docname="bss_logo_nounderline.svg"
   inkscape:version="1.2.1 (9c6d41e410, 2022-07-14)"
   xmlns:inkscape="http://www.inkscape.org/namespaces/inkscape"
   xmlns:sodipodi="http://sodipodi.sourceforge.net/DTD/sodipodi-0.dtd"
   xmlns="http://www.w3.org/2000/svg"
   xmlns:svg="http://www.w3.org/2000/svg"
   xmlns:serif="http://www.serif.com/"><defs
   id="defs184" /><sodipodi:namedview
   id="namedview182"
   pagecolor="#337c49"
   bordercolor="#000000"
   borderopacity="0.25"
   inkscape:showpageshadow="2"
   inkscape:pageopacity="0"
   inkscape:pagecheckerboard="0"
   inkscape:deskcolor="#d1d1d1"
   showgrid="false"
   inkscape:zoom="5.12"
   inkscape:cx="84.277344"
   inkscape:cy="44.335938"
   inkscape:window-width="1920"
   inkscape:window-height="1009"
   inkscape:window-x="1912"
   inkscape:window-y="-8"
   inkscape:window-maximized="1"
   inkscape:current-layer="Layer-1" />
    
    <g
   id="g1145"
   transform="scale(0.05718531)"><g
     id="Layer-1"
     serif:id="Layer 1"
     transform="matrix(5.5188591,0,0,5.5188591,-616.73802,-881.67637)">
        <g
   transform="matrix(0,1,1,0,655.582,314.316)"
   id="g4">
            <path
   d="M 15.75,-15.75 C 7.087,-15.75 0.063,-8.697 0.063,0 c 0,8.7 7.024,15.75 15.687,15.75 8.664,0 15.688,-7.05 15.688,-15.75 0,-8.697 -7.024,-15.75 -15.688,-15.75"
   style="fill:#005aaa;fill-rule:nonzero"
   id="path2" />
        </g>
        <g
   transform="matrix(0,1,1,0,619.582,307.482)"
   id="g8">
            <path
   d="M 15.75,-15.75 C 7.087,-15.75 0.063,-8.697 0.063,0 c 0,8.7 7.024,15.75 15.687,15.75 8.664,0 15.688,-7.05 15.688,-15.75 0,-8.697 -7.024,-15.75 -15.688,-15.75"
   style="fill:#005aaa;fill-rule:nonzero"
   id="path6" />
        </g>
        <g
   transform="matrix(0,1,1,0,588.748,286.482)"
   id="g12">
            <path
   d="M 15.75,-15.75 C 7.087,-15.75 0.063,-8.697 0.063,0 c 0,8.7 7.024,15.75 15.687,15.75 8.664,0 15.688,-7.05 15.688,-15.75 0,-8.697 -7.024,-15.75 -15.688,-15.75"
   style="fill:#005aaa;fill-rule:nonzero"
   id="path10" />
        </g>
        <g
   transform="matrix(0,1,1,0,567.582,255.482)"
   id="g16">
            <path
   d="M 15.75,-15.75 C 7.086,-15.75 0.062,-8.697 0.062,0 c 0,8.7 7.024,15.75 15.688,15.75 8.664,0 15.688,-7.05 15.688,-15.75 0,-8.697 -7.024,-15.75 -15.688,-15.75"
   style="fill:#005aaa;fill-rule:nonzero"
   id="path14" />
        </g>
        <g
   transform="matrix(0,1,1,0,560.582,219.483)"
   id="g20">
            <path
   d="M 15.75,-15.75 C 7.086,-15.75 0.063,-8.697 0.063,0 c 0,8.7 7.023,15.75 15.687,15.75 8.664,0 15.688,-7.05 15.688,-15.75 0,-8.697 -7.024,-15.75 -15.688,-15.75"
   style="fill:#005aaa;fill-rule:nonzero"
   id="path18" />
        </g>
        <g
   transform="matrix(0,1,1,0,655.59,159.552)"
   id="g24">
            <path
   d="m 75.659,-75.662 c -41.673,0 -75.454,33.873 -75.454,75.66 0,41.787 33.781,75.661 75.454,75.661 41.674,0 75.457,-33.874 75.457,-75.661 0,-41.787 -33.783,-75.66 -75.457,-75.66"
   style="fill:#005aaa;fill-rule:nonzero"
   id="path22" />
        </g>
        <g
   transform="matrix(0,1,1,0,438.583,314.316)"
   id="g28">
            <path
   d="M 15.75,-15.75 C 7.087,-15.749 0.063,-8.698 0.063,0 c 0,8.698 7.024,15.75 15.687,15.75 8.664,0 15.688,-7.052 15.688,-15.75 0,-8.698 -7.024,-15.75 -15.688,-15.75"
   style="fill:#005aaa;fill-rule:nonzero"
   id="path26" />
        </g>
        <g
   transform="matrix(0,1,1,0,402.667,307.4)"
   id="g32">
            <path
   d="M 15.75,-15.75 C 7.087,-15.75 0.063,-8.698 0.063,0 c 0,8.698 7.024,15.75 15.687,15.75 8.664,0 15.688,-7.053 15.688,-15.75 0,-8.698 -7.024,-15.75 -15.688,-15.75"
   style="fill:#005aaa;fill-rule:nonzero"
   id="path30" />
        </g>
        <g
   transform="matrix(0,1,1,0,371.5,286.399)"
   id="g36">
            <path
   d="M 15.75,-15.75 C 7.086,-15.75 0.062,-8.698 0.063,0 c 0,8.697 7.024,15.75 15.687,15.75 8.664,0 15.688,-7.053 15.688,-15.75 0,-8.698 -7.024,-15.75 -15.688,-15.75"
   style="fill:#005aaa;fill-rule:nonzero"
   id="path34" />
        </g>
        <g
   transform="matrix(0,1,1,0,350.666,255.399)"
   id="g40">
            <path
   d="M 15.75,-15.75 C 7.086,-15.75 0.062,-8.698 0.062,0 c 0,8.697 7.024,15.75 15.688,15.75 8.664,0 15.688,-7.053 15.688,-15.75 0,-8.698 -7.024,-15.75 -15.688,-15.75"
   style="fill:#005aaa;fill-rule:nonzero"
   id="path38" />
        </g>
        <g
   transform="matrix(0,1,1,0,343.5,219.399)"
   id="g44">
            <path
   d="m 15.751,-15.749 c -8.664,0 -15.688,7.051 -15.688,15.75 0,8.697 7.024,15.75 15.688,15.75 8.664,0 15.687,-7.053 15.687,-15.75 0,-8.699 -7.023,-15.75 -15.687,-15.75"
   style="fill:#005aaa;fill-rule:nonzero"
   id="path42" />
        </g>
        <g
   transform="matrix(0,1,1,0,439.001,159.51)"
   id="g48">
            <path
   d="m 75.66,-75.663 c -41.604,0 -75.329,33.873 -75.329,75.66 0,41.789 33.725,75.663 75.329,75.663 41.604,0 75.332,-33.874 75.332,-75.663 0,-41.787 -33.728,-75.66 -75.332,-75.66"
   style="fill:#005aaa;fill-rule:nonzero"
   id="path46" />
        </g>
        <g
   transform="matrix(0,1,1,0,222.5,314.233)"
   id="g52">
            <path
   d="M 15.75,-15.75 C 7.086,-15.75 0.062,-8.699 0.062,0 c 0,8.697 7.024,15.75 15.688,15.75 8.662,0 15.688,-7.053 15.688,-15.75 0,-8.699 -7.026,-15.75 -15.688,-15.75"
   style="fill:#005aaa;fill-rule:nonzero"
   id="path50" />
        </g>
        <g
   transform="matrix(0,1,1,0,186.5,307.483)"
   id="g56">
            <path
   d="M 15.75,-15.75 C 7.086,-15.75 0.062,-8.699 0.062,0 c 0,8.697 7.024,15.75 15.688,15.75 8.662,0 15.688,-7.053 15.688,-15.75 0,-8.699 -7.026,-15.75 -15.688,-15.75"
   style="fill:#005aaa;fill-rule:nonzero"
   id="path54" />
        </g>
        <g
   transform="matrix(0,1,1,0,155.5,286.358)"
   id="g60">
            <path
   d="M 15.75,-15.75 C 7.086,-15.75 0.062,-8.699 0.062,0 c 0,8.697 7.024,15.75 15.688,15.75 8.662,0 15.688,-7.053 15.688,-15.75 0,-8.699 -7.026,-15.75 -15.688,-15.75"
   style="fill:#005aaa;fill-rule:nonzero"
   id="path58" />
        </g>
        <g
   transform="matrix(0,1,1,0,134.626,255.358)"
   id="g64">
            <path
   d="M 15.75,-15.75 C 7.086,-15.75 0.063,-8.699 0.063,0 c 0,8.697 7.023,15.75 15.687,15.75 8.664,0 15.688,-7.053 15.688,-15.75 0,-8.699 -7.024,-15.75 -15.688,-15.75"
   style="fill:#005aaa;fill-rule:nonzero"
   id="path62" />
        </g>
        <g
   transform="matrix(0,1,1,0,127.501,219.483)"
   id="g68">
            <path
   d="M 15.75,-15.75 C 7.086,-15.75 0.063,-8.699 0.063,0 c 0,8.697 7.023,15.75 15.687,15.75 8.664,0 15.688,-7.053 15.688,-15.75 0,-8.699 -7.024,-15.75 -15.688,-15.75"
   style="fill:#005aaa;fill-rule:nonzero"
   id="path66" />
        </g>
        <g
   transform="matrix(0,1,1,0,222.667,159.51)"
   id="g72">
            <path
   d="m 75.659,-75.662 c -41.604,0 -75.329,33.874 -75.329,75.661 0,41.787 33.725,75.66 75.329,75.66 41.604,0 75.332,-33.873 75.332,-75.66 0,-41.787 -33.728,-75.661 -75.332,-75.661"
   style="fill:#005aaa;fill-rule:nonzero"
   id="path70" />
        </g>
        
        
        
        
        
        
        
        
        
        
        
        
        
        
        
        
        
        
        
        
        
        
        
    </g><g
     id="Layer-2"
     serif:id="Layer 2"
     transform="matrix(5.5188591,0,0,5.5188591,-616.73802,-881.67637)">
        <g
   transform="translate(235.414,232.353)"
   id="g169">
            <path
   d="M 0,9.502 H -26.619 V 27.891 H 0 c 2.214,0 3.708,-0.479 4.483,-1.436 0.776,-0.957 1.163,-2.642 1.163,-5.058 v -5.469 c 0,-2.415 -0.387,-4.09 -1.163,-5.025 C 3.708,9.97 2.214,9.502 0,9.502 M 0,-19.619 H -26.619 V -2.393 H 0 c 2.023,0 3.424,-0.386 4.199,-1.162 0.775,-0.774 1.162,-2.119 1.162,-4.033 v -6.836 c 0,-1.868 -0.387,-3.201 -1.162,-3.999 C 3.424,-19.22 2.023,-19.619 0,-19.619 M -38.102,40.879 V -31.377 H 4.887 c 3.954,0 6.816,1.117 8.589,3.35 1.771,2.233 2.657,5.788 2.657,10.664 v 8.818 c 0,3.464 -0.744,6.233 -2.231,8.306 -1.487,2.074 -3.622,3.361 -6.405,3.862 2.878,0.547 5.101,2.028 6.666,4.443 1.566,2.416 2.349,5.561 2.349,9.434 v 9.229 c 0,4.785 -1.218,8.339 -3.654,10.664 -2.435,2.324 -6.136,3.486 -11.102,3.486 z"
   style="fill:#ffffff;fill-rule:nonzero"
   id="path167" />
        </g>
        <g
   transform="translate(455.723,260.586)"
   id="g173">
            <path
   d="m 0,-46.963 h -32.834 v 15.518 h 31.27 c 4.902,0 8.214,1.208 9.939,3.623 1.725,2.416 2.586,6.904 2.586,13.466 v 9.913 c 0,6.562 -0.861,11.051 -2.586,13.466 -1.725,2.416 -5.037,3.623 -9.939,3.623 h -30.985 c -4.904,0 -8.217,-1.207 -9.941,-3.623 -1.724,-2.415 -2.586,-6.904 -2.586,-13.466 v -1.983 l 10.296,-3.076 v 8.545 H 0.666 v -16.475 h -31.27 c -4.872,0 -8.161,-1.207 -9.869,-3.623 -1.708,-2.415 -2.563,-6.904 -2.563,-13.467 v -7.998 c 0,-6.562 0.855,-11.05 2.563,-13.466 1.708,-2.415 4.997,-3.623 9.869,-3.623 h 28.469 c 4.713,0 7.963,1.162 9.752,3.486 1.785,2.324 2.68,6.449 2.68,12.373 v 1.504 L 0,-38.76 Z"
   style="fill:#ffffff;fill-rule:nonzero"
   id="path171" />
        </g>
        <g
   transform="translate(672.141,260.586)"
   id="g177">
            <path
   d="m 0,-46.963 h -32.834 v 15.518 h 31.27 c 4.902,0 8.214,1.208 9.939,3.623 1.725,2.416 2.586,6.904 2.586,13.466 v 9.913 c 0,6.562 -0.861,11.051 -2.586,13.466 -1.725,2.416 -5.037,3.623 -9.939,3.623 h -30.985 c -4.904,0 -8.217,-1.207 -9.941,-3.623 -1.725,-2.415 -2.586,-6.904 -2.586,-13.466 v -1.983 l 10.297,-3.076 v 8.545 H 0.666 v -16.475 h -31.27 c -4.873,0 -8.162,-1.207 -9.869,-3.623 -1.709,-2.415 -2.562,-6.904 -2.562,-13.467 v -7.998 c 0,-6.562 0.853,-11.05 2.562,-13.466 1.707,-2.415 4.996,-3.623 9.869,-3.623 h 28.469 c 4.713,0 7.963,1.162 9.752,3.486 1.785,2.324 2.68,6.449 2.68,12.373 v 1.504 L 0,-38.76 Z"
   style="fill:#ffffff;fill-rule:nonzero"
   id="path175" />
        </g>
    </g></g>
</svg>
